<?xml version="1.0" encoding="UTF-8"?>
<svg version="1.1" xmlns="http://www.w3.org/2000/svg" width="512" height="512">
<path d="M0 0 C7.85568212 7.08253942 13.5481728 16.61436306 14.203125 27.3203125 C14.32490646 37.20490762 12.65754804 44.86084567 9 54 C12.71755846 59.53092459 16.87299913 64.84467793 23.53035808 66.70835423 C31.11199288 67.82190169 38.78521347 67.53197056 46.42553711 67.40649414 C49.01030295 67.40806191 51.5950702 67.41495714 54.17980957 67.42675781 C59.72798025 67.44397131 65.27456348 67.41799169 70.82246208 67.36226082 C78.84877547 67.28196388 86.87403337 67.27139422 94.90069122 67.27787607 C107.93289016 67.28680815 120.96438094 67.24459426 133.99633789 67.16772461 C146.63630195 67.09331812 159.27610669 67.03563225 171.91625977 67.00561523 C172.6958599 67.00375334 173.47546004 67.00189144 174.27868443 66.99997313 C182.78972676 66.9801397 191.30077172 66.96517173 199.81182957 66.95396328 C200.55967407 66.95295959 201.30751857 66.95195589 202.07802503 66.95092179 C208.23059094 66.94269125 208.23059094 66.94269125 211.04607768 66.93939822 C219.79312843 66.92892699 228.53985299 66.90357494 237.28676052 66.85158794 C243.41462252 66.81530926 249.54246231 66.79228275 255.67040253 66.77379608 C258.18554238 66.76340534 260.70066668 66.74774901 263.2157383 66.72650719 C266.64225464 66.69806182 270.06836169 66.68785163 273.49497986 66.68202209 C274.49554962 66.66898908 275.49611937 66.65595607 276.52700943 66.64252812 C281.46998478 66.6535912 285.04065266 66.66554802 289 70 C290.2905775 72.58115501 290.1301856 74.43212491 290.13701439 77.32390022 C290.14208893 78.46056889 290.14716347 79.59723755 290.15239179 80.76835072 C290.15313843 82.65758788 290.15313843 82.65758788 290.15390015 84.58499146 C290.15791356 85.9282503 290.16235158 87.27150793 290.1671797 88.61476409 C290.17916606 92.31907091 290.1847985 96.0233647 290.18936086 99.72768712 C290.19530971 103.7184607 290.2069219 107.70921864 290.21765137 111.69998169 C290.2422004 121.34854703 290.2568106 130.99711758 290.26971143 140.64570457 C290.27342296 143.37213236 290.27739627 146.09855965 290.2814641 148.82498693 C290.30671131 165.76096496 290.32876154 182.69694378 290.34119225 199.63293648 C290.34412191 203.55818815 290.34708357 207.4834398 290.35009766 211.40869141 C290.35084371 212.38428508 290.35158976 213.35987876 290.35235842 214.36503588 C290.36499373 230.14541261 290.39818961 245.92567619 290.43989949 261.7060001 C290.48239014 277.9150393 290.50589592 294.12402073 290.51111281 310.33311546 C290.51451995 319.43054974 290.52619178 328.52780758 290.55921555 337.62518692 C290.58731602 345.37907845 290.59817204 353.1327574 290.58702008 360.88669588 C290.58185787 364.83813183 290.5845593 368.78912334 290.60948563 372.74049377 C290.75106495 396.47178574 289.41657609 415.50190808 272.4140625 433.61328125 C255.90492804 449.93541904 237.49526985 453.15467332 215.14317322 453.14044189 C213.51766231 453.14302802 211.89215203 453.14604187 210.26664263 453.1494453 C205.81005177 453.1574895 201.35347705 453.15930343 196.89687979 453.16004276 C192.08618657 453.16189782 187.27550164 453.16944742 182.46481323 453.17617798 C171.95015347 453.18974346 161.43549754 453.19578323 150.92083049 453.20018864 C144.35160857 453.20295406 137.78238812 453.20719196 131.21316719 453.21169281 C113.01388485 453.22388312 94.81460368 453.23418292 76.61531734 453.2375679 C75.4511653 453.23778747 74.28701325 453.23800703 73.08758387 453.23823325 C71.92069611 453.23845153 70.75380834 453.23866981 69.55156034 453.2388947 C67.18712421 453.23933816 64.82268808 453.23978473 62.45825195 453.24023438 C60.6990007 453.24056652 60.6990007 453.24056652 58.90420903 453.24090537 C39.90647885 453.24485214 20.90878706 453.26230354 1.91107171 453.2855939 C-17.60795971 453.30932961 -37.12697189 453.32177076 -56.64601797 453.32293582 C-67.59942716 453.32385133 -78.55278633 453.32957234 -89.50618172 453.34775543 C-98.83435701 453.36318638 -108.16246681 453.36825923 -117.49065245 453.36001733 C-122.2459164 453.35612144 -127.00104858 453.35698838 -131.75629616 453.37107468 C-136.11828535 453.38387733 -140.48004463 453.3825607 -144.8420338 453.37048396 C-146.41136698 453.36853793 -147.9807168 453.3715542 -149.55002666 453.38032833 C-162.48888415 453.44803031 -175.7162117 452.62610416 -187.3125 446.3125 C-187.97636719 445.96364746 -188.64023438 445.61479492 -189.32421875 445.25537109 C-205.10290318 436.70986277 -215.59462573 423.42170696 -221.171875 406.4296875 C-221.93145745 403.28386963 -222.32897165 400.53908724 -222.375 397.3125 C-222.40335938 396.40113281 -222.43171875 395.48976563 -222.4609375 394.55078125 C-221.84719006 391.15436532 -220.67622193 390.13925892 -218 388 C-215.27911377 387.51898193 -215.27911377 387.51898193 -212.12988281 387.54589844 C-210.94896057 387.54620056 -209.76803833 387.54650269 -208.55133057 387.54681396 C-207.28142273 387.56745911 -206.01151489 387.58810425 -204.703125 387.609375 C-203.39921814 387.61503479 -202.09531128 387.62069458 -200.75189209 387.62652588 C-197.29267477 387.64176662 -193.83413394 387.68103338 -190.37518311 387.7253418 C-186.84266307 387.76632913 -183.31003326 387.78454418 -179.77734375 387.8046875 C-172.85128538 387.84753032 -165.9256752 387.91576185 -159 388 C-159.00151888 387.33536816 -159.00303776 386.67073632 -159.00460267 385.98596412 C-159.09407314 346.61330256 -159.16272505 307.2406541 -159.20426132 267.86791151 C-159.20926427 263.14265372 -159.21444155 258.41739615 -159.21972656 253.69213867 C-159.2207758 252.75140657 -159.22182505 251.81067447 -159.22290608 250.84143534 C-159.24032154 235.59994506 -159.2718655 220.35851499 -159.30861118 205.11706046 C-159.34598889 189.48331851 -159.36822913 173.84960815 -159.37635398 158.21582335 C-159.38184834 148.5653142 -159.39921513 138.91497524 -159.43166587 129.26451846 C-159.45277463 122.65100086 -159.45920832 116.03757151 -159.45400551 109.42402265 C-159.45143804 105.60565898 -159.45543302 101.78759315 -159.4768219 97.96928215 C-159.4998253 93.8326222 -159.49197276 89.69659986 -159.48101807 85.55989075 C-159.49266943 84.34880624 -159.5043208 83.13772174 -159.51632524 81.8899377 C-159.45814389 73.80125622 -159.45814389 73.80125622 -157.15743637 69.77750683 C-154.07842261 67.24071453 -151.58623382 66.87466947 -147.72895813 66.84178162 C-146.42278534 66.82709839 -146.42278534 66.82709839 -145.09022522 66.81211853 C-143.66171486 66.80348534 -143.66171486 66.80348534 -142.2043457 66.79467773 C-141.19928986 66.78477814 -140.19423401 66.77487854 -139.15872192 66.76467896 C-135.83109913 66.73304922 -132.50346206 66.70830061 -129.17578125 66.68359375 C-126.87077968 66.6630255 -124.56578189 66.64202907 -122.26078796 66.62062073 C-116.18959616 66.56538674 -110.11837024 66.51598327 -104.04711914 66.46777344 C-97.85364745 66.41756814 -91.66022538 66.361877 -85.46679688 66.30664062 C-73.3112403 66.1990428 -61.15564066 66.09760139 -49 66 C-49.69318832 65.39359177 -50.38637665 64.78718353 -51.10057068 64.16239929 C-52.00638382 63.36074844 -52.91219696 62.5590976 -53.84545898 61.7331543 C-54.74489731 60.94112106 -55.64433563 60.14908783 -56.57102966 59.33305359 C-59.71400119 56.31419375 -61.24605749 53.76225829 -63.0625 49.8125 C-63.61035156 48.66394531 -64.15820312 47.51539063 -64.72265625 46.33203125 C-68.96380341 35.26873301 -67.6134883 23.71267622 -63 13 C-57.06363276 2.41302248 -48.6058876 -4.51823372 -37 -8 C-24.00175009 -11.0421436 -10.57176186 -8.14720939 0 0 Z " fill="#FDEECC" transform="translate(222,34)"/>
<path d="M0 0 C1.23093636 0.0001133 1.23093636 0.0001133 2.48674011 0.00022888 C3.36808121 0.00539017 4.2494223 0.01055145 5.1574707 0.01586914 C6.5161602 0.01799156 6.5161602 0.01799156 7.90229797 0.02015686 C10.79598286 0.02575538 13.68959044 0.03830758 16.58325195 0.05102539 C18.54483938 0.05604058 20.50642801 0.06060346 22.46801758 0.06469727 C27.27729217 0.07572432 32.08650895 0.09298792 36.89575195 0.11352539 C36.09137695 0.75290039 35.28700195 1.39227539 34.45825195 2.05102539 C32.62070155 3.51956041 32.62070155 3.51956041 30.89575195 5.11352539 C30.79349524 6.79710192 30.76175898 8.48498971 30.75708675 10.17166233 C30.75161231 11.27440638 30.74613787 12.37715043 30.74049753 13.51331097 C30.73951942 14.73993779 30.73854132 15.96656461 30.73753357 17.23036194 C30.73259559 18.52161891 30.72765761 19.81287588 30.72257 21.14326185 C30.70893531 24.74389661 30.7015552 28.34452188 30.69514334 31.94517577 C30.6871627 35.82182473 30.67345695 39.6984538 30.66043091 43.5750885 C30.63863489 50.29710838 30.62050188 57.01913024 30.60482597 63.74116707 C30.58215573 73.46021701 30.55400902 83.17924495 30.5245067 92.89827626 C30.47679581 108.66508464 30.43354114 124.43190198 30.39306641 140.19873047 C30.35372924 155.51872456 30.31230732 170.83871066 30.26806641 186.15869141 C30.26534213 187.10231929 30.26261786 188.04594716 30.25981104 189.01816983 C30.24613185 193.75186581 30.23241152 198.48556167 30.21867073 203.21925747 C30.10465104 242.51733018 29.99785387 281.81542002 29.89575195 321.11352539 C30.47574501 321.11162679 31.05573806 321.10972819 31.65330666 321.10777205 C66.01568532 320.99592217 100.37802767 320.91011316 134.74054964 320.85819874 C138.86495657 320.85194508 142.98936314 320.84547349 147.11376953 320.83886719 C147.93487704 320.83755564 148.75598455 320.83624408 149.60197411 320.83489279 C162.90353176 320.81312632 176.20498155 320.77369799 189.50647517 320.72776141 C203.15139232 320.68103125 216.79625292 320.65323729 230.44124681 320.64308292 C238.86343605 320.63621658 247.28532044 320.61451729 255.70741586 320.57394306 C261.47995712 320.5475471 267.2523404 320.53951721 273.02493765 320.5460185 C276.35744869 320.54922651 279.68899572 320.54153461 283.02148628 320.51749802 C286.63289249 320.49272058 290.24298093 320.49856595 293.85441589 320.51225281 C294.90986247 320.4976886 295.96530904 320.48312439 297.05273885 320.46811885 C301.7879117 320.51682256 304.12455056 320.54116767 308.01161671 323.42600727 C310.31999495 326.71866281 311.15388071 329.8600594 311.89575195 333.73852539 C315.79888554 351.34274094 324.91062045 365.50205553 340.14575195 375.42602539 C349.41849435 380.8684868 359.37689146 383.30893533 369.89575195 385.11352539 C369.89575195 385.44352539 369.89575195 385.77352539 369.89575195 386.11352539 C320.97697112 386.18223274 272.05819518 386.23507512 223.13937556 386.26672138 C217.36049509 386.27047338 211.58161471 386.27435636 205.80273438 386.27832031 C204.65229173 386.27910724 203.50184908 386.27989418 202.31654454 386.28070495 C183.70306703 386.29374919 165.0896174 386.31739763 146.47615641 386.34498378 C127.36870603 386.3730653 108.26127023 386.38970746 89.15380007 386.39579087 C77.36905196 386.39990161 65.58438264 386.4128724 53.79965878 386.43727479 C45.71200822 386.45316588 37.62439823 386.45791812 29.5367332 386.45402952 C24.87468249 386.45211323 20.21276921 386.45499442 15.5507431 386.47114182 C11.27355827 386.48584728 6.99660202 386.48640945 2.71940619 386.47622208 C1.18078685 386.47496484 -0.35784734 386.4786797 -1.89643789 386.48817494 C-14.74912623 386.56281253 -27.90595754 385.69308024 -39.41674805 379.42602539 C-40.08061523 379.07717285 -40.74448242 378.72832031 -41.4284668 378.36889648 C-57.20715123 369.82338816 -67.69887377 356.53523235 -73.27612305 339.54321289 C-74.03570549 336.39739502 -74.4332197 333.65261264 -74.47924805 330.42602539 C-74.50760742 329.5146582 -74.5359668 328.60329102 -74.56518555 327.66430664 C-73.95143811 324.26789071 -72.78046997 323.25278432 -70.10424805 321.11352539 C-67.38336182 320.63250732 -67.38336182 320.63250732 -64.23413086 320.65942383 C-63.05320862 320.65972595 -61.87228638 320.66002808 -60.65557861 320.66033936 C-59.38567078 320.6809845 -58.11576294 320.70162964 -56.80737305 320.72290039 C-55.50346619 320.72856018 -54.19955933 320.73421997 -52.85614014 320.74005127 C-49.39692282 320.75529201 -45.93838199 320.79455877 -42.47943115 320.83886719 C-38.94691112 320.87985452 -35.4142813 320.89806957 -31.8815918 320.91821289 C-24.95553342 320.96105571 -18.02992325 321.02928724 -11.10424805 321.11352539 C-11.10576693 320.44889355 -11.10728581 319.78426171 -11.10885072 319.09948951 C-11.19832119 279.72682795 -11.2669731 240.35417949 -11.30850936 200.9814369 C-11.31351232 196.25617911 -11.3186896 191.53092154 -11.32397461 186.80566406 C-11.32502385 185.86493196 -11.32607309 184.92419986 -11.32715413 183.95496073 C-11.34456958 168.71347045 -11.37611355 153.47204038 -11.41285923 138.23058585 C-11.45023693 122.5968439 -11.47247718 106.96313354 -11.48060203 91.32934874 C-11.48609639 81.67883959 -11.50346317 72.02850063 -11.53591391 62.37804385 C-11.55702268 55.76452625 -11.56345636 49.15109691 -11.55825356 42.53754804 C-11.55568608 38.71918437 -11.55968106 34.90111854 -11.58106995 31.08280754 C-11.60407335 26.94614759 -11.59622081 22.81012525 -11.58526611 18.67341614 C-11.59691748 17.46233163 -11.60856884 16.25124713 -11.62057328 15.00346309 C-11.56239194 6.91478161 -11.56239194 6.91478161 -9.26168442 2.89103222 C-6.22823879 0.39178339 -3.80208605 -0.01169873 0 0 Z " fill="#FDE09B" transform="translate(74.104248046875,100.886474609375)"/>
<path d="M0 0 C0.82062424 0.00007553 1.64124847 0.00015106 2.48674011 0.00022888 C3.80875175 0.00797081 3.80875175 0.00797081 5.1574707 0.01586914 C6.5161602 0.01799156 6.5161602 0.01799156 7.90229797 0.02015686 C10.79598286 0.02575538 13.68959044 0.03830758 16.58325195 0.05102539 C18.54483938 0.05604058 20.50642801 0.06060346 22.46801758 0.06469727 C27.27729217 0.07572432 32.08650895 0.09298792 36.89575195 0.11352539 C35.68918945 1.07258789 35.68918945 1.07258789 34.45825195 2.05102539 C32.62070155 3.51956041 32.62070155 3.51956041 30.89575195 5.11352539 C30.79349524 6.79710192 30.76175898 8.48498971 30.75708675 10.17166233 C30.75161231 11.27440638 30.74613787 12.37715043 30.74049753 13.51331097 C30.73951942 14.73993779 30.73854132 15.96656461 30.73753357 17.23036194 C30.73259559 18.52161891 30.72765761 19.81287588 30.72257 21.14326185 C30.70893531 24.74389661 30.7015552 28.34452188 30.69514334 31.94517577 C30.6871627 35.82182473 30.67345695 39.6984538 30.66043091 43.5750885 C30.63863489 50.29710838 30.62050188 57.01913024 30.60482597 63.74116707 C30.58215573 73.46021701 30.55400902 83.17924495 30.5245067 92.89827626 C30.47679581 108.66508464 30.43354114 124.43190198 30.39306641 140.19873047 C30.35372924 155.51872456 30.31230732 170.83871066 30.26806641 186.15869141 C30.26534213 187.10231929 30.26261786 188.04594716 30.25981104 189.01816983 C30.24613185 193.75186581 30.23241152 198.48556167 30.21867073 203.21925747 C30.10465104 242.51733036 29.99812737 281.81542058 29.89575195 321.11352539 C16.36575195 321.11352539 2.83575195 321.11352539 -11.10424805 321.11352539 C-11.19463356 281.06951412 -11.26626486 241.02552961 -11.30850936 200.9814369 C-11.31351232 196.25617911 -11.3186896 191.53092154 -11.32397461 186.80566406 C-11.32502385 185.86493196 -11.32607309 184.92419986 -11.32715413 183.95496073 C-11.34456958 168.71347045 -11.37611355 153.47204038 -11.41285923 138.23058585 C-11.45023693 122.5968439 -11.47247718 106.96313354 -11.48060203 91.32934874 C-11.48609639 81.67883959 -11.50346317 72.02850063 -11.53591391 62.37804385 C-11.55702268 55.76452625 -11.56345636 49.15109691 -11.55825356 42.53754804 C-11.55568608 38.71918437 -11.55968106 34.90111854 -11.58106995 31.08280754 C-11.60407335 26.94614759 -11.59622081 22.81012525 -11.58526611 18.67341614 C-11.59691748 17.46233163 -11.60856884 16.25124713 -11.62057328 15.00346309 C-11.56239194 6.91478161 -11.56239194 6.91478161 -9.26168442 2.89103222 C-6.22823879 0.39178339 -3.80208605 -0.01169873 0 0 Z " fill="#FDE8B4" transform="translate(74.104248046875,100.886474609375)"/>
<path d="M0 0 C7.85568212 7.08253942 13.5481728 16.61436306 14.203125 27.3203125 C14.33163258 37.75084453 13.61471244 46.49536972 7 55 C6.56816406 55.56332031 6.13632813 56.12664062 5.69140625 56.70703125 C-2.07133433 66.36312319 -11.1381894 70.93935824 -23.4921875 72.41796875 C-34.56220117 72.8740829 -44.71684036 69.70201798 -53.296875 62.58203125 C-60.52712289 55.86586062 -66.36627818 47.13954908 -67 37 C-67.061875 36.22527344 -67.12375 35.45054688 -67.1875 34.65234375 C-67.71251042 23.24977363 -64.29762269 13.40180142 -57.2734375 4.4453125 C-42.12111958 -11.85254149 -17.57666594 -13.54559247 0 0 Z " fill="#7C54CC" transform="translate(222,34)"/>
<path d="M0 0 C2.64737043 0.76217615 5.24793271 1.61026952 7.85400391 2.50341797 C9.25066284 2.97932373 9.25066284 2.97932373 10.67553711 3.46484375 C26.69597159 9.10959494 39.60544961 18.11786432 47.66650391 33.44091797 C51.34517714 42.07780295 50.63080019 51.70602253 47.47900391 60.37841797 C42.67705365 71.48959732 34.57315222 77.6602303 23.41650391 82.19091797 C13.61704635 85.68003153 1.12423499 89.80988239 -9.33349609 87.44091797 C-12.7986811 84.72999711 -14.18911883 83.25351457 -14.96841431 78.86741638 C-14.99793122 77.47352244 -15.00021766 76.07888101 -14.98046875 74.68481445 C-14.98923035 73.91997742 -14.99799194 73.15514038 -15.00701904 72.36712646 C-15.02896102 69.84817163 -15.0144818 67.33098322 -14.99755859 64.81201172 C-15.00092791 63.05753748 -15.0057815 61.30306551 -15.01205444 59.54859924 C-15.01941837 55.87584152 -15.00873483 52.20369269 -14.98535156 48.53100586 C-14.95684253 43.82396036 -14.97328351 39.11833893 -15.00321388 34.41134548 C-15.02128217 30.79015877 -15.01553146 27.16930975 -15.00257492 23.54811287 C-14.99924068 21.81257013 -15.00332868 20.07699668 -15.01497269 18.34148979 C-15.02767675 15.9160426 -15.00831531 13.49290228 -14.98046875 11.06762695 C-14.9905899 10.35115494 -15.00071106 9.63468292 -15.01113892 8.89649963 C-14.93238984 5.1934368 -14.58934679 3.7084725 -11.99154663 0.99183655 C-7.85270253 -1.42309504 -4.59260808 -1.10034238 0 0 Z " fill="#715776" transform="translate(310.33349609375,206.55908203125)"/>
<path d="M0 0 C10.5563164 6.14216789 16.94746339 15.66958392 20.0625 27.4375 C22.25371491 40.28493902 20.52969582 53.65759523 12.875 64.5 C7.33134312 71.02445772 0.91646804 77.43538594 -7.984375 78.2421875 C-18.25051412 78.4919044 -25.3802235 75.22414439 -33.046875 68.47265625 C-42.42438845 58.58759696 -43.78842508 45.68313595 -43.58984375 32.78515625 C-43.19073458 22.60489403 -38.62786579 13.60302088 -31.65234375 6.25 C-29.94250334 4.69205885 -28.20426118 3.32989194 -26.3125 2 C-25.72984375 1.58621094 -25.1471875 1.17242187 -24.546875 0.74609375 C-17.1073104 -3.73952609 -7.79153063 -3.54160483 0 0 Z " fill="#715776" transform="translate(243.3125,216)"/>
<path d="M0 0 C8.00339338 5.28525978 13.79160539 14.90493659 16.1875 24.125 C19.16931215 39.03406074 15.8520538 52.25125107 7.77734375 64.91796875 C3.19271045 70.96346826 -3.66183464 74.58386283 -11 76 C-18.92850603 76.96508032 -25.670258 74.98994422 -32.234375 70.45703125 C-40.9396934 63.30623399 -45.20491636 53.99290157 -47 43 C-47.90775274 29.41347123 -46.32606819 18.36037417 -37.91796875 7.19140625 C-27.31241629 -4.92613944 -14.27008982 -6.75717649 0 0 Z " fill="#715776" transform="translate(423,218)"/>
<path d="M0 0 C0.675236 -0.00482883 1.350472 -0.00965766 2.0461697 -0.01463282 C4.30192393 -0.02587744 6.55653781 -0.00860627 8.8122406 0.00863647 C10.43208625 0.00648995 12.05193039 0.00261128 13.67176819 -0.00286865 C18.06638057 -0.01255711 22.46058629 0.00273445 26.85514951 0.02303743 C31.45371105 0.04061155 36.05226011 0.0370833 40.65084839 0.03631592 C48.37219544 0.03818855 56.09338522 0.05554817 63.81468201 0.08285522 C72.74372424 0.11431674 81.67259431 0.124851 90.60168797 0.12338412 C99.19006908 0.12216372 107.77839409 0.13237243 116.36675835 0.14896774 C120.02257157 0.15603144 123.67836493 0.15969395 127.33418465 0.16075516 C131.6376552 0.16276327 135.94098104 0.17496659 140.24440384 0.19508743 C141.82463762 0.20093198 143.40488805 0.20338926 144.98513222 0.20223236 C147.14030739 0.20125156 149.29507667 0.21255556 151.45019531 0.22705078 C153.26007352 0.23207831 153.26007352 0.23207831 155.10651493 0.23720741 C158.08267655 0.48782969 159.7207323 0.81890986 162.16160583 2.49447632 C164.16160583 5.49447632 164.16160583 5.49447632 164.03660583 8.93197632 C163.05764137 12.91776022 162.37510834 14.04145643 159.16160583 16.49447632 C156.07248688 16.99784088 156.07248688 16.99784088 152.36753845 17.00241089 C151.68498977 17.00865085 151.00244109 17.01489081 150.29920912 17.02131987 C148.01275528 17.03727124 145.7273644 17.02463833 143.44090271 17.01205444 C141.80149717 17.01747465 140.1620965 17.02459674 138.52270508 17.03329468 C134.07021474 17.05154316 129.6180948 17.0444543 125.16559792 17.03177834 C120.50829182 17.02165853 115.85101765 17.03104117 111.19371033 17.037323 C103.37224121 17.04460238 95.55092312 17.03500408 87.72947693 17.01596069 C78.68392506 16.99419137 69.6387338 17.00124254 60.59319067 17.02326632 C52.83002302 17.04141204 45.06696399 17.0439827 37.30378199 17.03351164 C32.66578923 17.02727214 28.02796603 17.02645357 23.38998413 17.03965759 C19.02978554 17.05120347 14.67005235 17.04321372 10.3099041 17.02008057 C8.70870677 17.01478668 7.10747035 17.01631888 5.50628853 17.02513123 C3.32221949 17.0360443 1.1396466 17.0223771 -1.04432678 17.00241089 C-2.26695976 17.00090279 -3.48959274 16.99939468 -4.74927521 16.99784088 C-8.42500111 16.39889012 -9.59631763 15.40813403 -11.83839417 12.49447632 C-12.40480042 10.49447632 -12.40480042 10.49447632 -12.40089417 8.49447632 C-12.42280823 7.83447632 -12.44472229 7.17447632 -12.46730042 6.49447632 C-10.64240217 0.6910732 -5.33413259 -0.00481516 0 0 Z " fill="#F79235" transform="translate(219.83839416503906,317.5055236816406)"/>
<path d="M0 0 C-0.165 0.99 -0.33 1.98 -0.5 3 C-2.07203246 16.45755062 -1.90118387 28.09821417 5.84375 39.78125 C11.90354004 47.28815408 21.3471786 53.33908944 31 55 C39.16807848 55.63111453 46.24678289 54.56405605 54 52 C53.06039537 59.53007088 46.90813336 64.62169246 41.3125 69.3125 C32.22322894 75.67321795 20.83182411 77.39335545 10 76 C-0.9717397 73.11592972 -10.5890401 67.52588957 -17 58 C-19.90286465 52.61793202 -22.61417584 47.17318661 -23 41 C-23.061875 40.22527344 -23.12375 39.45054688 -23.1875 38.65234375 C-23.77036575 25.99322826 -19.4480971 15.34943114 -11 6 C-4.47674419 0 -4.47674419 0 0 0 Z " fill="#5D2CBF" transform="translate(178,30)"/>
<path d="M0 0 C1.59702003 -0.01891296 1.59702003 -0.01891296 3.2263031 -0.03820801 C4.9435836 -0.02606262 4.9435836 -0.02606262 6.69555664 -0.01367188 C7.87662491 -0.01749878 9.05769318 -0.02132568 10.27455139 -0.02526855 C12.77191012 -0.02799017 15.26929723 -0.0206117 17.76660156 -0.00390625 C21.58796873 0.01747883 25.40745154 -0.00369182 29.22875977 -0.02929688 C31.65519621 -0.02665327 34.08163148 -0.02152763 36.50805664 -0.01367188 C37.65088608 -0.0217688 38.79371552 -0.02986572 39.97117615 -0.03820801 C47.86960216 0.05505424 47.86960216 0.05505424 51.86181641 2.3671875 C54.22550915 5.18100094 54.7432168 6.84238676 54.66821289 10.51757812 C52.8978184 13.26474199 51.60529445 15.04903734 48.66821289 16.51757812 C47.29273133 16.6006645 45.91335493 16.62493828 44.53540039 16.61523438 C43.72973633 16.61201172 42.92407227 16.60878906 42.09399414 16.60546875 C41.25223633 16.59708984 40.41047852 16.58871094 39.54321289 16.58007812 C38.6937207 16.57556641 37.84422852 16.57105469 36.96899414 16.56640625 C34.8687038 16.55460687 32.76844959 16.53667119 30.66821289 16.51757812 C30.67709534 17.23310349 30.68597778 17.94862885 30.69512939 18.68583679 C30.77537762 25.43891256 30.83622891 32.19185469 30.87546158 38.9453001 C30.89631001 42.41710996 30.92457584 45.88852486 30.9699707 49.36010742 C31.02186728 53.35404182 31.04118063 57.34756328 31.05883789 61.34179688 C31.07948303 62.58466965 31.10012817 63.82754242 31.12139893 65.108078 C31.12170105 66.26890396 31.12200317 67.42972992 31.12231445 68.62573242 C31.1311969 69.64499313 31.14007935 70.66425385 31.14923096 71.71440125 C30.5392714 75.26899647 29.13395342 76.93700634 26.66821289 79.51757812 C23.82737648 80.93799633 21.81344011 80.83210085 18.66821289 80.51757812 C15.89328337 78.40857541 14.79222985 77.2288699 14.18719482 73.75872803 C14.19607727 72.70171692 14.20495972 71.64470581 14.21411133 70.55566406 C14.21441345 69.35472107 14.21471558 68.15377808 14.21502686 66.91644287 C14.235672 65.62466125 14.25631714 64.33287964 14.27758789 63.00195312 C14.28505218 61.66246384 14.29074423 60.3229636 14.29473877 58.98345947 C14.30998076 55.46506376 14.34924871 51.94733297 14.39355469 48.42919922 C14.43453925 44.83635451 14.45275649 41.24340192 14.47290039 37.65039062 C14.51574544 30.60584846 14.58397843 23.5617568 14.66821289 16.51757812 C12.69788086 16.5871875 12.69788086 16.5871875 10.68774414 16.65820312 C8.95208985 16.69573079 7.2164109 16.73212988 5.48071289 16.76757812 C4.61639648 16.80109375 3.75208008 16.83460938 2.86157227 16.86914062 C-1.40055355 16.93446056 -3.69780891 16.90750166 -7.40576172 14.62695312 C-9.47819935 12.35722805 -9.9945852 11.53832059 -9.89428711 8.51757812 C-9.89557617 7.85757813 -9.89686523 7.19757813 -9.89819336 6.51757812 C-8.45888456 1.43532913 -4.90910639 0.01670258 0 0 Z " fill="#715776" transform="translate(145.331787109375,213.482421875)"/>
<path d="M0 0 C1.05423157 -0.0087616 2.10846313 -0.01752319 3.19464111 -0.02655029 C6.67778748 -0.04854755 10.15966309 -0.03398813 13.64282227 -0.01708984 C16.06511173 -0.0204581 18.48739955 -0.0253108 20.90968323 -0.03158569 C25.98633922 -0.03895773 31.0625553 -0.02824104 36.13916016 -0.00488281 C42.64396194 0.02358904 49.14773156 0.00721183 55.65249538 -0.02274513 C60.65484885 -0.04082159 65.65695806 -0.03505801 70.65931892 -0.02210617 C73.05748682 -0.01877238 75.45567695 -0.02285823 77.85381889 -0.03450394 C81.20782991 -0.04721578 84.5601754 -0.02782751 87.9140625 0 C88.90386612 -0.01012115 89.89366974 -0.02024231 90.91346741 -0.03067017 C95.372402 0.03780016 98.55645405 0.18247948 102.14173889 2.99990845 C104.52172852 5.64697266 104.52172852 5.64697266 105.20922852 8.64697266 C104.25623218 12.80550211 102.93831068 14.07589137 99.52172852 16.64697266 C95.95973621 17.38635811 92.45534411 17.31991435 88.828125 17.27807617 C87.75117371 17.28523148 86.67422241 17.29238678 85.56463623 17.29975891 C82.00693268 17.31665959 78.4504866 17.29723505 74.89282227 17.27587891 C72.42090246 17.27670741 69.94898271 17.27916608 67.47706604 17.28318787 C62.2978557 17.28604675 57.11907761 17.27133383 51.93994141 17.24389648 C45.29604983 17.20979654 38.65293039 17.21583742 32.00900173 17.23455906 C26.90551804 17.2451187 21.80221456 17.2362008 16.69874763 17.22117424 C14.24869382 17.2159856 11.79862124 17.21648245 9.34856987 17.22271919 C5.92727945 17.22815932 2.50710125 17.20783371 -0.9140625 17.18041992 C-2.43760597 17.19020874 -2.43760597 17.19020874 -3.9919281 17.20019531 C-10.81408264 17.10707783 -10.81408264 17.10707783 -14.1033783 14.82847595 C-16.16711908 11.55399808 -16.07619951 9.43385017 -15.47827148 5.64697266 C-11.23473834 -0.40648032 -6.80084106 -0.06939951 0 0 Z " fill="#F79336" transform="translate(239.478271484375,357.35302734375)"/>
<path d="M0 0 C12.41052573 2.75789461 21.96038785 7.35976166 29.37890625 17.97265625 C32.16690204 22.85893458 32.93317242 27.44956823 32 33 C30.04434356 39.68590046 25.97306934 43.63390574 20 47 C13.14498191 50.16463224 7.68722317 51.14586409 0 52 C0 34.84 0 17.68 0 0 Z " fill="#FCEDCC" transform="translate(312,225)"/>
<path d="M0 0 C3.68994791 1.54384028 6.0239451 3.78813943 8.8125 6.625 C9.62332031 7.44226563 10.43414062 8.25953125 11.26953125 9.1015625 C13.22968119 11.18229391 15.08357451 13.26640982 16.9296875 15.44140625 C22.68985405 22.07408818 29.07159391 28.13786064 35.3125 34.3125 C37.85314611 36.82653917 40.39044387 39.34388979 42.92578125 41.86328125 C43.50596512 42.43516678 44.08614899 43.00705231 44.68391418 43.5962677 C47.07234795 45.97003245 49.12544558 48.18816838 51 51 C50.92433357 55.16165352 50.59563245 57.29925594 47.875 60.5 C44.05101274 62.49512379 42.15524599 61.99322784 38 61 C35.38737488 59.10217285 35.38737488 59.10217285 32.92260742 56.58789062 C32.46638 56.13093307 32.01015259 55.67397552 31.5401001 55.20317078 C30.04732305 53.70117411 28.57681184 52.1792233 27.10546875 50.65625 C26.06790773 49.60494498 25.02892881 48.5550376 23.98860168 47.50646973 C21.2618866 44.75126673 18.55325021 41.97896745 15.84851074 39.20220947 C12.55290486 35.82486133 9.23799727 32.46647894 5.92420673 29.106987 C3.34786017 26.49487785 0.77514484 23.87952574 -1.7870636 21.25354004 C-2.70529404 20.31586792 -3.62352448 19.3781958 -4.56958008 18.41210938 C-5.78367302 17.16753967 -5.78367302 17.16753967 -7.02229309 15.89782715 C-8.86029366 13.94626518 -8.86029366 13.94626518 -11 13 C-9.49091551 9.15869402 -7.1970513 7.51196888 -4 5 C-2.62631655 3.36643049 -1.28062485 1.7074998 0 0 Z " fill="#C9BFCB" transform="translate(229,88)"/>
<path d="M0 0 C6.71271612 3.76567002 9.65327588 9.95982764 12 17 C12.90468626 26.61043767 11.61037463 35.83705388 5.4375 43.5625 C2.3412669 46.6587331 0.68549088 47.89543359 -3.6875 48.5625 C-8.34971596 48.4079514 -10.97425316 46.44315633 -14.234375 43.234375 C-19.7582681 36.24396161 -20.73101654 28.06601999 -20.4453125 19.37109375 C-19.5374211 12.49819655 -16.59932961 7.21923562 -11.6875 2.375 C-7.92871007 -0.47874507 -4.57741371 -1.33357722 0 0 Z " fill="#FBECCB" transform="translate(412,230)"/>
<path d="M0 0 C3.7338222 0.94786567 6.0372215 2.54165872 8.27734375 5.578125 C13.06723975 14.05548062 14.93364373 21.98816551 12.54296875 31.5 C10.41433019 37.9557071 7.97511593 43.49220223 1.83984375 46.953125 C-2.57137262 48.02903143 -5.48422839 48.09413661 -9.72265625 46.328125 C-14.85653838 42.41659576 -18.021348 35.87841966 -19.04492188 29.60205078 C-19.8065878 21.52185243 -19.44213225 13.45942549 -14.72265625 6.578125 C-10.03686125 1.2066039 -7.03967639 -1.04967622 0 0 Z " fill="#FBECCB" transform="translate(234.72265625,230.421875)"/>
</svg>
